<mxfile host="65bd71144e" scale="10" border="0">
    <diagram id="Jf5RHwIwj3P055EiEldz" name="第 1 页">
        <mxGraphModel dx="1290" dy="-924" grid="1" gridSize="10" guides="1" tooltips="1" connect="1" arrows="1" fold="1" page="1" pageScale="1" pageWidth="1169" pageHeight="1654" math="0" shadow="0">
            <root>
                <mxCell id="0"/>
                <mxCell id="1" parent="0"/>
                <mxCell id="569" value="" style="rounded=0;whiteSpace=wrap;html=1;strokeColor=#DAE8FC;fillColor=#DAE8FC;" parent="1" vertex="1">
                    <mxGeometry x="40" y="2391" width="600" height="120" as="geometry"/>
                </mxCell>
                <mxCell id="570" value="" style="rounded=0;whiteSpace=wrap;html=1;strokeColor=#DAE8FC;fillColor=#DAE8FC;" parent="1" vertex="1">
                    <mxGeometry x="280" y="2351" width="360" height="40" as="geometry"/>
                </mxCell>
                <mxCell id="571" value="" style="rounded=0;whiteSpace=wrap;html=1;strokeColor=#F8CECC;fillColor=#F8CECC;" parent="1" vertex="1">
                    <mxGeometry x="40" y="2311" width="200" height="40" as="geometry"/>
                </mxCell>
                <mxCell id="572" value="" style="rounded=0;whiteSpace=wrap;html=1;strokeColor=#F8CECC;fillColor=#f8cecc;" parent="1" vertex="1">
                    <mxGeometry x="40" y="2191" width="600" height="120" as="geometry"/>
                </mxCell>
                <mxCell id="573" value="" style="whiteSpace=wrap;html=1;aspect=fixed;fillColor=#d5e8d4;strokeColor=#82b366;" parent="1" vertex="1">
                    <mxGeometry x="280" y="2311" width="40" height="40" as="geometry"/>
                </mxCell>
                <mxCell id="574" value="" style="whiteSpace=wrap;html=1;aspect=fixed;" parent="1" vertex="1">
                    <mxGeometry x="320" y="2311" width="40" height="40" as="geometry"/>
                </mxCell>
                <mxCell id="575" value="" style="whiteSpace=wrap;html=1;aspect=fixed;" parent="1" vertex="1">
                    <mxGeometry x="360" y="2311" width="40" height="40" as="geometry"/>
                </mxCell>
                <mxCell id="576" value="" style="whiteSpace=wrap;html=1;aspect=fixed;" parent="1" vertex="1">
                    <mxGeometry x="400" y="2311" width="40" height="40" as="geometry"/>
                </mxCell>
                <mxCell id="577" value="" style="whiteSpace=wrap;html=1;aspect=fixed;" parent="1" vertex="1">
                    <mxGeometry x="440" y="2311" width="40" height="40" as="geometry"/>
                </mxCell>
                <mxCell id="578" value="" style="whiteSpace=wrap;html=1;aspect=fixed;" parent="1" vertex="1">
                    <mxGeometry x="480" y="2311" width="40" height="40" as="geometry"/>
                </mxCell>
                <mxCell id="579" value="" style="whiteSpace=wrap;html=1;aspect=fixed;" parent="1" vertex="1">
                    <mxGeometry x="520" y="2311" width="40" height="40" as="geometry"/>
                </mxCell>
                <mxCell id="580" value="" style="whiteSpace=wrap;html=1;aspect=fixed;" parent="1" vertex="1">
                    <mxGeometry x="560" y="2311" width="40" height="40" as="geometry"/>
                </mxCell>
                <mxCell id="581" value="" style="whiteSpace=wrap;html=1;aspect=fixed;" parent="1" vertex="1">
                    <mxGeometry x="600" y="2311" width="40" height="40" as="geometry"/>
                </mxCell>
                <mxCell id="582" value="" style="whiteSpace=wrap;html=1;aspect=fixed;" parent="1" vertex="1">
                    <mxGeometry x="120" y="2351" width="40" height="40" as="geometry"/>
                </mxCell>
                <mxCell id="583" value="" style="whiteSpace=wrap;html=1;aspect=fixed;" parent="1" vertex="1">
                    <mxGeometry x="160" y="2351" width="40" height="40" as="geometry"/>
                </mxCell>
                <mxCell id="585" value="" style="whiteSpace=wrap;html=1;aspect=fixed;" parent="1" vertex="1">
                    <mxGeometry x="200" y="2351" width="40" height="40" as="geometry"/>
                </mxCell>
                <mxCell id="586" value="" style="whiteSpace=wrap;html=1;aspect=fixed;" parent="1" vertex="1">
                    <mxGeometry x="40" y="2351" width="40" height="40" as="geometry"/>
                </mxCell>
                <mxCell id="587" value="" style="whiteSpace=wrap;html=1;aspect=fixed;" parent="1" vertex="1">
                    <mxGeometry x="80" y="2351" width="40" height="40" as="geometry"/>
                </mxCell>
                <mxCell id="588" value="" style="whiteSpace=wrap;html=1;aspect=fixed;" parent="1" vertex="1">
                    <mxGeometry x="120" y="2351" width="40" height="40" as="geometry"/>
                </mxCell>
                <mxCell id="589" style="edgeStyle=none;html=1;entryX=0;entryY=0.5;entryDx=0;entryDy=0;fontFamily=Times New Roman;fontSize=22;rounded=0;" parent="1" source="590" target="660" edge="1">
                    <mxGeometry relative="1" as="geometry">
                        <Array as="points">
                            <mxPoint x="260" y="2606"/>
                        </Array>
                    </mxGeometry>
                </mxCell>
                <mxCell id="590" value="&lt;font face=&quot;Times New Roman&quot;&gt;now&lt;br&gt;2&lt;br&gt;&lt;/font&gt;" style="whiteSpace=wrap;html=1;aspect=fixed;" parent="1" vertex="1">
                    <mxGeometry x="240" y="2351" width="40" height="40" as="geometry"/>
                </mxCell>
                <mxCell id="594" value="" style="whiteSpace=wrap;html=1;aspect=fixed;fillColor=#d5e8d4;strokeColor=#82b366;" parent="1" vertex="1">
                    <mxGeometry x="320" y="2311" width="40" height="40" as="geometry"/>
                </mxCell>
                <mxCell id="595" style="edgeStyle=none;html=1;fontFamily=Times New Roman;fontSize=22;" parent="1" source="597" target="590" edge="1">
                    <mxGeometry relative="1" as="geometry"/>
                </mxCell>
                <mxCell id="597" value="&lt;font face=&quot;Times New Roman&quot;&gt;up&lt;br&gt;0&lt;/font&gt;" style="whiteSpace=wrap;html=1;aspect=fixed;fillColor=#d5e8d4;strokeColor=#82b366;" parent="1" vertex="1">
                    <mxGeometry x="240" y="2311" width="40" height="40" as="geometry"/>
                </mxCell>
                <mxCell id="598" value="" style="whiteSpace=wrap;html=1;aspect=fixed;fillColor=#d5e8d4;strokeColor=#82b366;" parent="1" vertex="1">
                    <mxGeometry x="360" y="2311" width="40" height="40" as="geometry"/>
                </mxCell>
                <mxCell id="599" value="" style="whiteSpace=wrap;html=1;aspect=fixed;fillColor=#d5e8d4;strokeColor=#82b366;" parent="1" vertex="1">
                    <mxGeometry x="400" y="2311" width="40" height="40" as="geometry"/>
                </mxCell>
                <mxCell id="600" value="" style="whiteSpace=wrap;html=1;aspect=fixed;fillColor=#d5e8d4;strokeColor=#82b366;" parent="1" vertex="1">
                    <mxGeometry x="400" y="2311" width="40" height="40" as="geometry"/>
                </mxCell>
                <mxCell id="601" value="" style="whiteSpace=wrap;html=1;aspect=fixed;fillColor=#d5e8d4;strokeColor=#82b366;" parent="1" vertex="1">
                    <mxGeometry x="360" y="2311" width="40" height="40" as="geometry"/>
                </mxCell>
                <mxCell id="602" value="" style="whiteSpace=wrap;html=1;aspect=fixed;fillColor=#d5e8d4;strokeColor=#82b366;" parent="1" vertex="1">
                    <mxGeometry x="320" y="2311" width="40" height="40" as="geometry"/>
                </mxCell>
                <mxCell id="603" value="" style="whiteSpace=wrap;html=1;aspect=fixed;fillColor=#d5e8d4;strokeColor=#82b366;" parent="1" vertex="1">
                    <mxGeometry x="480" y="2311" width="40" height="40" as="geometry"/>
                </mxCell>
                <mxCell id="604" value="" style="whiteSpace=wrap;html=1;aspect=fixed;fillColor=#d5e8d4;strokeColor=#82b366;" parent="1" vertex="1">
                    <mxGeometry x="440" y="2311" width="40" height="40" as="geometry"/>
                </mxCell>
                <mxCell id="605" style="edgeStyle=none;html=1;entryX=0.5;entryY=0;entryDx=0;entryDy=0;fontFamily=宋体;fontSource=https%3A%2F%2Ffonts.googleapis.com%2Fcss%3Ffamily%3D%25E5%25AE%258B%25E4%25BD%2593;fontSize=15;" parent="1" source="606" target="614" edge="1">
                    <mxGeometry relative="1" as="geometry">
                        <Array as="points">
                            <mxPoint x="705" y="2331"/>
                        </Array>
                    </mxGeometry>
                </mxCell>
                <mxCell id="606" value="" style="whiteSpace=wrap;html=1;aspect=fixed;fillColor=#d5e8d4;strokeColor=#82b366;" parent="1" vertex="1">
                    <mxGeometry x="600" y="2311" width="40" height="40" as="geometry"/>
                </mxCell>
                <mxCell id="607" value="" style="whiteSpace=wrap;html=1;aspect=fixed;fillColor=#d5e8d4;strokeColor=#82b366;" parent="1" vertex="1">
                    <mxGeometry x="560" y="2311" width="40" height="40" as="geometry"/>
                </mxCell>
                <mxCell id="608" value="" style="whiteSpace=wrap;html=1;aspect=fixed;fillColor=#d5e8d4;strokeColor=#82b366;" parent="1" vertex="1">
                    <mxGeometry x="520" y="2311" width="40" height="40" as="geometry"/>
                </mxCell>
                <mxCell id="609" value="" style="whiteSpace=wrap;html=1;aspect=fixed;fillColor=#d5e8d4;strokeColor=#82b366;" parent="1" vertex="1">
                    <mxGeometry x="80" y="2351" width="40" height="40" as="geometry"/>
                </mxCell>
                <mxCell id="610" value="" style="whiteSpace=wrap;html=1;aspect=fixed;fillColor=#d5e8d4;strokeColor=#82b366;" parent="1" vertex="1">
                    <mxGeometry x="40" y="2351" width="40" height="40" as="geometry"/>
                </mxCell>
                <mxCell id="611" value="&lt;font face=&quot;Times New Roman&quot;&gt;left&lt;br&gt;2&lt;/font&gt;" style="whiteSpace=wrap;html=1;aspect=fixed;fillColor=#82B366;strokeColor=#82b366;" parent="1" vertex="1">
                    <mxGeometry x="200" y="2351" width="40" height="40" as="geometry"/>
                </mxCell>
                <mxCell id="612" value="" style="whiteSpace=wrap;html=1;aspect=fixed;fillColor=#d5e8d4;strokeColor=#82b366;" parent="1" vertex="1">
                    <mxGeometry x="160" y="2351" width="40" height="40" as="geometry"/>
                </mxCell>
                <mxCell id="613" value="" style="whiteSpace=wrap;html=1;aspect=fixed;fillColor=#d5e8d4;strokeColor=#82b366;" parent="1" vertex="1">
                    <mxGeometry x="120" y="2351" width="40" height="40" as="geometry"/>
                </mxCell>
                <mxCell id="614" value="&lt;p class=&quot;MsoNormal&quot;&gt;&lt;font face=&quot;宋体&quot; data-font-src=&quot;https://fonts.googleapis.com/css?family=%E5%AE%8B%E4%BD%93&quot; style=&quot;font-size: 22px&quot;&gt;行寄存器数组&lt;/font&gt;&lt;br&gt;&lt;/p&gt;" style="text;html=1;strokeColor=none;fillColor=none;align=center;verticalAlign=middle;whiteSpace=wrap;rounded=0;" parent="1" vertex="1">
                    <mxGeometry x="650" y="2391" width="110" height="70" as="geometry"/>
                </mxCell>
                <mxCell id="615" value="&lt;font face=&quot;Times New Roman&quot;&gt;3&lt;/font&gt;" style="rounded=0;whiteSpace=wrap;html=1;fontFamily=宋体;fontSource=https%3A%2F%2Ffonts.googleapis.com%2Fcss%3Ffamily%3D%25E5%25AE%258B%25E4%25BD%2593;fontSize=15;" parent="1" vertex="1">
                    <mxGeometry x="80" y="2561" width="60" height="30" as="geometry"/>
                </mxCell>
                <mxCell id="616" value="&lt;font face=&quot;Times New Roman&quot;&gt;4&lt;/font&gt;" style="rounded=0;whiteSpace=wrap;html=1;fontFamily=宋体;fontSource=https%3A%2F%2Ffonts.googleapis.com%2Fcss%3Ffamily%3D%25E5%25AE%258B%25E4%25BD%2593;fontSize=15;" parent="1" vertex="1">
                    <mxGeometry x="80" y="2591" width="60" height="30" as="geometry"/>
                </mxCell>
                <mxCell id="617" value="&lt;span style=&quot;font-family: &amp;#34;times new roman&amp;#34;&quot;&gt;5&lt;/span&gt;" style="rounded=0;whiteSpace=wrap;html=1;fontFamily=宋体;fontSource=https%3A%2F%2Ffonts.googleapis.com%2Fcss%3Ffamily%3D%25E5%25AE%258B%25E4%25BD%2593;fontSize=15;" parent="1" vertex="1">
                    <mxGeometry x="80" y="2621" width="60" height="30" as="geometry"/>
                </mxCell>
                <mxCell id="622" value="&lt;font face=&quot;Times New Roman&quot;&gt;...&lt;/font&gt;" style="rounded=0;whiteSpace=wrap;html=1;fontFamily=宋体;fontSource=https%3A%2F%2Ffonts.googleapis.com%2Fcss%3Ffamily%3D%25E5%25AE%258B%25E4%25BD%2593;fontSize=15;" parent="1" vertex="1">
                    <mxGeometry x="80" y="2651" width="60" height="30" as="geometry"/>
                </mxCell>
                <mxCell id="623" value="" style="rounded=0;whiteSpace=wrap;html=1;fontFamily=宋体;fontSource=https%3A%2F%2Ffonts.googleapis.com%2Fcss%3Ffamily%3D%25E5%25AE%258B%25E4%25BD%2593;fontSize=15;" parent="1" vertex="1">
                    <mxGeometry x="360" y="2561" width="60" height="30" as="geometry"/>
                </mxCell>
                <mxCell id="624" value="" style="rounded=0;whiteSpace=wrap;html=1;fontFamily=宋体;fontSource=https%3A%2F%2Ffonts.googleapis.com%2Fcss%3Ffamily%3D%25E5%25AE%258B%25E4%25BD%2593;fontSize=15;fillColor=#ffe6cc;strokeColor=#d79b00;" parent="1" vertex="1">
                    <mxGeometry x="360" y="2591" width="60" height="30" as="geometry"/>
                </mxCell>
                <mxCell id="625" value="" style="rounded=0;whiteSpace=wrap;html=1;fontFamily=宋体;fontSource=https%3A%2F%2Ffonts.googleapis.com%2Fcss%3Ffamily%3D%25E5%25AE%258B%25E4%25BD%2593;fontSize=15;" parent="1" vertex="1">
                    <mxGeometry x="360" y="2621" width="60" height="30" as="geometry"/>
                </mxCell>
                <mxCell id="626" value="" style="rounded=0;whiteSpace=wrap;html=1;fontFamily=宋体;fontSource=https%3A%2F%2Ffonts.googleapis.com%2Fcss%3Ffamily%3D%25E5%25AE%258B%25E4%25BD%2593;fontSize=15;" parent="1" vertex="1">
                    <mxGeometry x="360" y="2651" width="60" height="30" as="geometry"/>
                </mxCell>
                <mxCell id="631" value="" style="rounded=0;whiteSpace=wrap;html=1;fontFamily=宋体;fontSource=https%3A%2F%2Ffonts.googleapis.com%2Fcss%3Ffamily%3D%25E5%25AE%258B%25E4%25BD%2593;fontSize=15;" parent="1" vertex="1">
                    <mxGeometry x="420" y="2561" width="60" height="30" as="geometry"/>
                </mxCell>
                <mxCell id="632" value="" style="rounded=0;whiteSpace=wrap;html=1;fontFamily=宋体;fontSource=https%3A%2F%2Ffonts.googleapis.com%2Fcss%3Ffamily%3D%25E5%25AE%258B%25E4%25BD%2593;fontSize=15;fillColor=#ffe6cc;strokeColor=#d79b00;" parent="1" vertex="1">
                    <mxGeometry x="420" y="2591" width="60" height="30" as="geometry"/>
                </mxCell>
                <mxCell id="633" value="" style="rounded=0;whiteSpace=wrap;html=1;fontFamily=宋体;fontSource=https%3A%2F%2Ffonts.googleapis.com%2Fcss%3Ffamily%3D%25E5%25AE%258B%25E4%25BD%2593;fontSize=15;" parent="1" vertex="1">
                    <mxGeometry x="420" y="2621" width="60" height="30" as="geometry"/>
                </mxCell>
                <mxCell id="634" value="" style="rounded=0;whiteSpace=wrap;html=1;fontFamily=宋体;fontSource=https%3A%2F%2Ffonts.googleapis.com%2Fcss%3Ffamily%3D%25E5%25AE%258B%25E4%25BD%2593;fontSize=15;" parent="1" vertex="1">
                    <mxGeometry x="420" y="2651" width="60" height="30" as="geometry"/>
                </mxCell>
                <mxCell id="639" value="" style="rounded=0;whiteSpace=wrap;html=1;fontFamily=宋体;fontSource=https%3A%2F%2Ffonts.googleapis.com%2Fcss%3Ffamily%3D%25E5%25AE%258B%25E4%25BD%2593;fontSize=15;" parent="1" vertex="1">
                    <mxGeometry x="480" y="2561" width="60" height="30" as="geometry"/>
                </mxCell>
                <mxCell id="640" value="" style="rounded=0;whiteSpace=wrap;html=1;fontFamily=宋体;fontSource=https%3A%2F%2Ffonts.googleapis.com%2Fcss%3Ffamily%3D%25E5%25AE%258B%25E4%25BD%2593;fontSize=15;fillColor=#ffe6cc;strokeColor=#d79b00;" parent="1" vertex="1">
                    <mxGeometry x="480" y="2591" width="60" height="30" as="geometry"/>
                </mxCell>
                <mxCell id="641" value="" style="rounded=0;whiteSpace=wrap;html=1;fontFamily=宋体;fontSource=https%3A%2F%2Ffonts.googleapis.com%2Fcss%3Ffamily%3D%25E5%25AE%258B%25E4%25BD%2593;fontSize=15;" parent="1" vertex="1">
                    <mxGeometry x="480" y="2621" width="60" height="30" as="geometry"/>
                </mxCell>
                <mxCell id="642" value="" style="rounded=0;whiteSpace=wrap;html=1;fontFamily=宋体;fontSource=https%3A%2F%2Ffonts.googleapis.com%2Fcss%3Ffamily%3D%25E5%25AE%258B%25E4%25BD%2593;fontSize=15;" parent="1" vertex="1">
                    <mxGeometry x="480" y="2651" width="60" height="30" as="geometry"/>
                </mxCell>
                <mxCell id="647" value="" style="rounded=0;whiteSpace=wrap;html=1;fontFamily=宋体;fontSource=https%3A%2F%2Ffonts.googleapis.com%2Fcss%3Ffamily%3D%25E5%25AE%258B%25E4%25BD%2593;fontSize=15;" parent="1" vertex="1">
                    <mxGeometry x="540" y="2561" width="60" height="30" as="geometry"/>
                </mxCell>
                <mxCell id="648" value="" style="rounded=0;whiteSpace=wrap;html=1;fontFamily=宋体;fontSource=https%3A%2F%2Ffonts.googleapis.com%2Fcss%3Ffamily%3D%25E5%25AE%258B%25E4%25BD%2593;fontSize=15;fillColor=#ffe6cc;strokeColor=#d79b00;" parent="1" vertex="1">
                    <mxGeometry x="540" y="2591" width="60" height="30" as="geometry"/>
                </mxCell>
                <mxCell id="649" value="" style="rounded=0;whiteSpace=wrap;html=1;fontFamily=宋体;fontSource=https%3A%2F%2Ffonts.googleapis.com%2Fcss%3Ffamily%3D%25E5%25AE%258B%25E4%25BD%2593;fontSize=15;" parent="1" vertex="1">
                    <mxGeometry x="540" y="2621" width="60" height="30" as="geometry"/>
                </mxCell>
                <mxCell id="650" value="" style="rounded=0;whiteSpace=wrap;html=1;fontFamily=宋体;fontSource=https%3A%2F%2Ffonts.googleapis.com%2Fcss%3Ffamily%3D%25E5%25AE%258B%25E4%25BD%2593;fontSize=15;" parent="1" vertex="1">
                    <mxGeometry x="540" y="2651" width="60" height="30" as="geometry"/>
                </mxCell>
                <mxCell id="655" value="&lt;font data-font-src=&quot;https://fonts.googleapis.com/css?family=%E5%AE%8B%E4%BD%93&quot; style=&quot;font-size: 15px&quot; face=&quot;Times New Roman&quot;&gt;X1&lt;/font&gt;" style="text;html=1;strokeColor=none;fillColor=none;align=center;verticalAlign=middle;whiteSpace=wrap;rounded=0;" parent="1" vertex="1">
                    <mxGeometry x="360" y="2531" width="60" height="30" as="geometry"/>
                </mxCell>
                <mxCell id="656" value="&lt;font data-font-src=&quot;https://fonts.googleapis.com/css?family=%E5%AE%8B%E4%BD%93&quot; style=&quot;font-size: 15px&quot; face=&quot;Times New Roman&quot;&gt;Y1&lt;/font&gt;" style="text;html=1;strokeColor=none;fillColor=none;align=center;verticalAlign=middle;whiteSpace=wrap;rounded=0;" parent="1" vertex="1">
                    <mxGeometry x="420" y="2531" width="60" height="30" as="geometry"/>
                </mxCell>
                <mxCell id="657" value="&lt;font data-font-src=&quot;https://fonts.googleapis.com/css?family=%E5%AE%8B%E4%BD%93&quot; style=&quot;font-size: 15px&quot; face=&quot;Times New Roman&quot;&gt;X2&lt;/font&gt;" style="text;html=1;strokeColor=none;fillColor=none;align=center;verticalAlign=middle;whiteSpace=wrap;rounded=0;" parent="1" vertex="1">
                    <mxGeometry x="480" y="2531" width="60" height="30" as="geometry"/>
                </mxCell>
                <mxCell id="658" value="&lt;font data-font-src=&quot;https://fonts.googleapis.com/css?family=%E5%AE%8B%E4%BD%93&quot; style=&quot;font-size: 15px&quot; face=&quot;Times New Roman&quot;&gt;Y2&lt;/font&gt;" style="text;html=1;strokeColor=none;fillColor=none;align=center;verticalAlign=middle;whiteSpace=wrap;rounded=0;" parent="1" vertex="1">
                    <mxGeometry x="540" y="2531" width="60" height="30" as="geometry"/>
                </mxCell>
                <mxCell id="659" value="&lt;font data-font-src=&quot;https://fonts.googleapis.com/css?family=%E5%AE%8B%E4%BD%93&quot; style=&quot;font-size: 15px&quot; face=&quot;Times New Roman&quot;&gt;1&lt;/font&gt;" style="text;html=1;strokeColor=none;fillColor=none;align=center;verticalAlign=middle;whiteSpace=wrap;rounded=0;" parent="1" vertex="1">
                    <mxGeometry x="330" y="2561" width="30" height="30" as="geometry"/>
                </mxCell>
                <mxCell id="660" value="&lt;font data-font-src=&quot;https://fonts.googleapis.com/css?family=%E5%AE%8B%E4%BD%93&quot; style=&quot;font-size: 15px&quot; face=&quot;Times New Roman&quot;&gt;2&lt;/font&gt;" style="text;html=1;strokeColor=none;fillColor=none;align=center;verticalAlign=middle;whiteSpace=wrap;rounded=0;" parent="1" vertex="1">
                    <mxGeometry x="330" y="2591" width="30" height="30" as="geometry"/>
                </mxCell>
                <mxCell id="661" value="&lt;font data-font-src=&quot;https://fonts.googleapis.com/css?family=%E5%AE%8B%E4%BD%93&quot; style=&quot;font-size: 15px&quot; face=&quot;Times New Roman&quot;&gt;3&lt;/font&gt;" style="text;html=1;strokeColor=none;fillColor=none;align=center;verticalAlign=middle;whiteSpace=wrap;rounded=0;" parent="1" vertex="1">
                    <mxGeometry x="330" y="2621" width="30" height="30" as="geometry"/>
                </mxCell>
                <mxCell id="666" value="&lt;font data-font-src=&quot;https://fonts.googleapis.com/css?family=%E5%AE%8B%E4%BD%93&quot; style=&quot;font-size: 15px&quot; face=&quot;Times New Roman&quot;&gt;...&lt;/font&gt;" style="text;html=1;strokeColor=none;fillColor=none;align=center;verticalAlign=middle;whiteSpace=wrap;rounded=0;" parent="1" vertex="1">
                    <mxGeometry x="330" y="2651" width="30" height="30" as="geometry"/>
                </mxCell>
                <mxCell id="667" value="&lt;p class=&quot;MsoNormal&quot;&gt;&lt;font style=&quot;font-size: 22px&quot; face=&quot;宋体&quot; data-font-src=&quot;https://fonts.googleapis.com/css?family=%E5%AE%8B%E4%BD%93&quot;&gt;标注序号栈&lt;/font&gt;&lt;/p&gt;" style="text;html=1;strokeColor=none;fillColor=none;align=center;verticalAlign=middle;whiteSpace=wrap;rounded=0;" parent="1" vertex="1">
                    <mxGeometry x="140" y="2651" width="130" height="30" as="geometry"/>
                </mxCell>
                <mxCell id="668" value="&lt;p class=&quot;MsoNormal&quot; style=&quot;font-size: 22px&quot;&gt;&lt;font face=&quot;宋体&quot; style=&quot;font-size: 22px&quot;&gt;商品位置&lt;/font&gt;&lt;/p&gt;&lt;p class=&quot;MsoNormal&quot; style=&quot;font-size: 22px&quot;&gt;&lt;font face=&quot;宋体&quot; style=&quot;font-size: 22px&quot;&gt;寄存器数组&lt;/font&gt;&lt;/p&gt;" style="text;html=1;strokeColor=none;fillColor=none;align=center;verticalAlign=middle;whiteSpace=wrap;rounded=0;" parent="1" vertex="1">
                    <mxGeometry x="600" y="2601" width="130" height="80" as="geometry"/>
                </mxCell>
                <mxCell id="669" value="&lt;font style=&quot;font-size: 18px&quot;&gt;adjust&lt;/font&gt;" style="text;html=1;align=center;verticalAlign=middle;resizable=0;points=[];autosize=1;strokeColor=none;fillColor=none;fontSize=22;fontFamily=Times New Roman;" parent="1" vertex="1">
                    <mxGeometry x="260" y="2601" width="60" height="30" as="geometry"/>
                </mxCell>
                <mxCell id="671" style="edgeStyle=none;html=1;fontFamily=Times New Roman;fontSize=18;entryX=0.5;entryY=1;entryDx=0;entryDy=0;exitX=0.5;exitY=1;exitDx=0;exitDy=0;curved=1;" parent="1" source="611" target="590" edge="1">
                    <mxGeometry relative="1" as="geometry">
                        <Array as="points">
                            <mxPoint x="220" y="2410"/>
                            <mxPoint x="250" y="2410"/>
                        </Array>
                    </mxGeometry>
                </mxCell>
                <mxCell id="678" value="&lt;font face=&quot;宋体&quot; data-font-src=&quot;https://fonts.googleapis.com/css?family=%E5%AE%8B%E4%BD%93&quot; style=&quot;font-size: 22px&quot;&gt;二值化图像&lt;/font&gt;" style="text;html=1;strokeColor=none;fillColor=none;align=center;verticalAlign=middle;whiteSpace=wrap;rounded=0;" parent="1" vertex="1">
                    <mxGeometry x="40" y="2160" width="120" height="30" as="geometry"/>
                </mxCell>
                <mxCell id="679" value="&lt;font face=&quot;宋体&quot; data-font-src=&quot;https://fonts.googleapis.com/css?family=%E5%AE%8B%E4%BD%93&quot; style=&quot;font-size: 22px&quot;&gt;已遍历区域&lt;/font&gt;" style="text;html=1;strokeColor=none;fillColor=none;align=center;verticalAlign=middle;whiteSpace=wrap;rounded=0;" parent="1" vertex="1">
                    <mxGeometry x="280" y="2235" width="120" height="30" as="geometry"/>
                </mxCell>
                <mxCell id="680" value="&lt;font face=&quot;宋体&quot; data-font-src=&quot;https://fonts.googleapis.com/css?family=%E5%AE%8B%E4%BD%93&quot; style=&quot;font-size: 22px&quot;&gt;未遍历区域&lt;/font&gt;" style="text;html=1;strokeColor=none;fillColor=none;align=center;verticalAlign=middle;whiteSpace=wrap;rounded=0;" parent="1" vertex="1">
                    <mxGeometry x="277.5" y="2420" width="125" height="30" as="geometry"/>
                </mxCell>
            </root>
        </mxGraphModel>
    </diagram>
</mxfile>